<svg
  width="209"
  height="209"
  viewBox="0 0 209 209"
  fill="none"
  xmlns="http://www.w3.org/2000/svg"
>


  <rect width="209" height="209" rx="104.5" fill="#22262c">
  <path
    d="M42.1324 74.3435V80.9771C40.9062 80.9771 39.8509 81.0877 38.9664 81.3088C38.102 81.5098 37.4487 81.8917 37.0065 82.4546C36.5844 82.9973 36.4235 83.7813 36.524 84.8065L37.4588 93.7015C37.7 95.9529 37.4487 97.7721 36.705 99.1592C35.9813 100.546 34.8656 101.612 33.358 102.355C31.8705 103.079 30.1116 103.592 28.0813 103.893C30.2322 104.215 32.0514 104.737 33.5389 105.461C35.0265 106.185 36.112 107.23 36.7954 108.597C37.4789 109.964 37.7 111.793 37.4588 114.085L36.524 122.98C36.4235 123.985 36.5844 124.769 37.0065 125.332C37.4487 125.895 38.1121 126.276 38.9966 126.477C39.881 126.699 40.9263 126.809 42.1324 126.809V133.443C39.3584 133.443 37.0065 133.242 35.0767 132.84C33.1469 132.438 31.5991 131.794 30.4332 130.91C29.2874 130.046 28.4934 128.9 28.0511 127.473C27.629 126.065 27.5184 124.347 27.7195 122.316L28.624 113.693C28.7849 112.165 28.5235 110.969 27.8401 110.105C27.1767 109.24 26.1917 108.637 24.8851 108.295C23.5785 107.934 22.0709 107.753 20.3622 107.753V100.034C22.0508 100.034 23.5483 99.8627 24.855 99.521C26.1616 99.1592 27.1566 98.5461 27.8401 97.6817C28.5235 96.8173 28.7849 95.6212 28.624 94.0935L27.7195 85.5302C27.4983 83.4597 27.5989 81.7108 28.021 80.2836C28.4632 78.8564 29.2573 77.7106 30.4031 76.8462C31.569 75.9617 33.1168 75.3285 35.0466 74.9466C36.9964 74.5445 39.3584 74.3435 42.1324 74.3435ZM97.7236 119.301C97.7236 118.075 98.0251 116.959 98.6282 115.954C99.2312 114.929 100.045 114.115 101.071 113.512C102.096 112.889 103.221 112.577 104.448 112.577C105.694 112.577 106.83 112.889 107.855 113.512C108.86 114.115 109.664 114.929 110.267 115.954C110.87 116.959 111.172 118.075 111.172 119.301C111.172 120.507 110.87 121.623 110.267 122.648C109.664 123.673 108.86 124.487 107.855 125.09C106.83 125.714 105.694 126.025 104.448 126.025C103.221 126.025 102.096 125.714 101.071 125.09C100.045 124.487 99.2312 123.673 98.6282 122.648C98.0251 121.623 97.7236 120.507 97.7236 119.301ZM121.846 119.301C121.846 118.075 122.147 116.959 122.75 115.954C123.353 114.929 124.167 114.115 125.193 113.512C126.218 112.889 127.344 112.577 128.57 112.577C129.816 112.577 130.942 112.889 131.947 113.512C132.972 114.115 133.786 114.929 134.389 115.954C134.992 116.959 135.294 118.075 135.294 119.301C135.294 120.507 134.992 121.623 134.389 122.648C133.786 123.673 132.972 124.487 131.947 125.09C130.942 125.714 129.816 126.025 128.57 126.025C127.344 126.025 126.218 125.714 125.193 125.09C124.167 124.487 123.353 123.673 122.75 122.648C122.147 121.623 121.846 120.507 121.846 119.301ZM73.6015 119.301C73.6015 118.075 73.903 116.959 74.506 115.954C75.1091 114.929 75.9232 114.115 76.9484 113.512C77.9736 112.889 79.0993 112.577 80.3255 112.577C81.5718 112.577 82.7076 112.889 83.7328 113.512C84.7378 114.115 85.5419 114.929 86.145 115.954C86.748 116.959 87.0496 118.075 87.0496 119.301C87.0496 120.507 86.748 121.623 86.145 122.648C85.5419 123.673 84.7378 124.487 83.7328 125.09C82.7076 125.714 81.5718 126.025 80.3255 126.025C79.0993 126.025 77.9736 125.714 76.9484 125.09C75.9232 124.487 75.1091 123.673 74.506 122.648C73.903 121.623 73.6015 120.507 73.6015 119.301ZM166.689 74.3435C169.463 74.3435 171.815 74.5445 173.745 74.9466C175.675 75.3486 177.213 75.9919 178.358 76.8763C179.524 77.7407 180.328 78.8865 180.771 80.3137C181.213 81.7209 181.323 83.4396 181.102 85.4698L180.198 94.0935C180.037 95.6212 180.298 96.8173 180.982 97.6817C181.665 98.5461 182.65 99.1592 183.937 99.521C185.243 99.8627 186.751 100.034 188.46 100.034V107.753C186.771 107.753 185.273 107.934 183.967 108.295C182.66 108.637 181.665 109.24 180.982 110.105C180.298 110.969 180.037 112.165 180.198 113.693L181.102 122.256C181.323 124.327 181.213 126.075 180.771 127.503C180.349 128.93 179.555 130.076 178.389 130.94C177.243 131.825 175.695 132.458 173.745 132.84C171.815 133.242 169.463 133.443 166.689 133.443V126.809C167.916 126.809 168.961 126.699 169.825 126.477C170.71 126.276 171.363 125.895 171.785 125.332C172.227 124.769 172.398 123.985 172.298 122.98L171.363 114.085C171.122 111.813 171.363 109.994 172.087 108.627C172.83 107.24 173.956 106.185 175.464 105.461C176.971 104.717 178.74 104.195 180.771 103.893C178.62 103.572 176.791 103.049 175.283 102.325C173.795 101.602 172.71 100.556 172.026 99.1893C171.343 97.8023 171.122 95.973 171.363 93.7015L172.298 84.8065C172.398 83.7813 172.227 82.9973 171.785 82.4546C171.363 81.8917 170.71 81.5098 169.825 81.3088C168.961 81.0877 167.916 80.9771 166.689 80.9771V74.3435Z"
    fill="white"
  />
</svg>
