<svg width="519" height="210" viewBox="0 0 519 210" fill="none" xmlns="http://www.w3.org/2000/svg">
<rect width="209" height="209" rx="104.5" fill="#22262C"/>
<path d="M42.1324 74.3435V80.9771C40.9062 80.9771 39.8509 81.0877 38.9664 81.3088C38.102 81.5098 37.4487 81.8917 37.0065 82.4546C36.5844 82.9973 36.4235 83.7813 36.524 84.8065L37.4588 93.7015C37.7 95.9529 37.4487 97.7721 36.705 99.1592C35.9813 100.546 34.8656 101.612 33.358 102.355C31.8705 103.079 30.1116 103.592 28.0813 103.893C30.2322 104.215 32.0514 104.737 33.5389 105.461C35.0265 106.185 36.112 107.23 36.7954 108.597C37.4789 109.964 37.7 111.793 37.4588 114.085L36.524 122.98C36.4235 123.985 36.5844 124.769 37.0065 125.332C37.4487 125.895 38.1121 126.276 38.9966 126.477C39.881 126.699 40.9263 126.809 42.1324 126.809V133.443C39.3584 133.443 37.0065 133.242 35.0767 132.84C33.1469 132.438 31.5991 131.794 30.4332 130.91C29.2874 130.046 28.4934 128.9 28.0511 127.473C27.629 126.065 27.5184 124.347 27.7195 122.316L28.624 113.693C28.7849 112.165 28.5235 110.969 27.8401 110.105C27.1767 109.24 26.1917 108.637 24.8851 108.295C23.5785 107.934 22.0709 107.753 20.3622 107.753V100.034C22.0508 100.034 23.5483 99.8627 24.855 99.521C26.1616 99.1592 27.1566 98.5461 27.8401 97.6817C28.5235 96.8173 28.7849 95.6212 28.624 94.0935L27.7195 85.5302C27.4983 83.4597 27.5989 81.7108 28.021 80.2836C28.4632 78.8564 29.2573 77.7106 30.4031 76.8462C31.569 75.9617 33.1168 75.3285 35.0466 74.9466C36.9964 74.5445 39.3584 74.3435 42.1324 74.3435ZM97.7236 119.301C97.7236 118.075 98.0251 116.959 98.6282 115.954C99.2312 114.929 100.045 114.115 101.071 113.512C102.096 112.889 103.221 112.577 104.448 112.577C105.694 112.577 106.83 112.889 107.855 113.512C108.86 114.115 109.664 114.929 110.267 115.954C110.87 116.959 111.172 118.075 111.172 119.301C111.172 120.507 110.87 121.623 110.267 122.648C109.664 123.673 108.86 124.487 107.855 125.09C106.83 125.714 105.694 126.025 104.448 126.025C103.221 126.025 102.096 125.714 101.071 125.09C100.045 124.487 99.2312 123.673 98.6282 122.648C98.0251 121.623 97.7236 120.507 97.7236 119.301ZM121.846 119.301C121.846 118.075 122.147 116.959 122.75 115.954C123.353 114.929 124.167 114.115 125.193 113.512C126.218 112.889 127.344 112.577 128.57 112.577C129.816 112.577 130.942 112.889 131.947 113.512C132.972 114.115 133.786 114.929 134.389 115.954C134.992 116.959 135.294 118.075 135.294 119.301C135.294 120.507 134.992 121.623 134.389 122.648C133.786 123.673 132.972 124.487 131.947 125.09C130.942 125.714 129.816 126.025 128.57 126.025C127.344 126.025 126.218 125.714 125.193 125.09C124.167 124.487 123.353 123.673 122.75 122.648C122.147 121.623 121.846 120.507 121.846 119.301ZM73.6015 119.301C73.6015 118.075 73.903 116.959 74.506 115.954C75.1091 114.929 75.9232 114.115 76.9484 113.512C77.9736 112.889 79.0993 112.577 80.3255 112.577C81.5718 112.577 82.7076 112.889 83.7328 113.512C84.7378 114.115 85.5419 114.929 86.145 115.954C86.748 116.959 87.0496 118.075 87.0496 119.301C87.0496 120.507 86.748 121.623 86.145 122.648C85.5419 123.673 84.7378 124.487 83.7328 125.09C82.7076 125.714 81.5718 126.025 80.3255 126.025C79.0993 126.025 77.9736 125.714 76.9484 125.09C75.9232 124.487 75.1091 123.673 74.506 122.648C73.903 121.623 73.6015 120.507 73.6015 119.301ZM166.689 74.3435C169.463 74.3435 171.815 74.5445 173.745 74.9466C175.675 75.3486 177.213 75.9919 178.358 76.8763C179.524 77.7407 180.328 78.8865 180.771 80.3137C181.213 81.7209 181.323 83.4396 181.102 85.4698L180.198 94.0935C180.037 95.6212 180.298 96.8173 180.982 97.6817C181.665 98.5461 182.65 99.1592 183.937 99.521C185.243 99.8627 186.751 100.034 188.46 100.034V107.753C186.771 107.753 185.273 107.934 183.967 108.295C182.66 108.637 181.665 109.24 180.982 110.105C180.298 110.969 180.037 112.165 180.198 113.693L181.102 122.256C181.323 124.327 181.213 126.075 180.771 127.503C180.349 128.93 179.555 130.076 178.389 130.94C177.243 131.825 175.695 132.458 173.745 132.84C171.815 133.242 169.463 133.443 166.689 133.443V126.809C167.916 126.809 168.961 126.699 169.825 126.477C170.71 126.276 171.363 125.895 171.785 125.332C172.227 124.769 172.398 123.985 172.298 122.98L171.363 114.085C171.122 111.813 171.363 109.994 172.087 108.627C172.83 107.24 173.956 106.185 175.464 105.461C176.971 104.717 178.74 104.195 180.771 103.893C178.62 103.572 176.791 103.049 175.283 102.325C173.795 101.602 172.71 100.556 172.026 99.1893C171.343 97.8023 171.122 95.973 171.363 93.7015L172.298 84.8065C172.398 83.7813 172.227 82.9973 171.785 82.4546C171.363 81.8917 170.71 81.5098 169.825 81.3088C168.961 81.0877 167.916 80.9771 166.689 80.9771V74.3435Z" fill="white"/>
<path d="M321.836 125.616C321.836 132.492 320.024 138.569 316.399 143.847C312.827 149.124 307.683 153.256 300.966 156.241C294.249 159.226 286.173 160.719 276.738 160.719C266.29 160.719 257.52 159.199 250.431 156.161C243.394 153.069 237.557 149.258 232.919 144.726L246.193 130.014C250.297 133.585 254.828 136.357 259.786 138.33C264.744 140.249 270.181 141.208 276.098 141.208C279.776 141.208 283.001 140.675 285.773 139.609C288.545 138.543 290.704 136.997 292.25 134.971C293.796 132.945 294.569 130.493 294.569 127.615C294.569 124.896 293.956 122.604 292.73 120.738C291.504 118.872 289.425 117.193 286.493 115.7C283.615 114.208 279.59 112.689 274.419 111.143C265.783 108.477 258.827 105.545 253.549 102.347C248.325 99.1485 244.513 95.4436 242.115 91.2323C239.769 87.021 238.596 82.1167 238.596 76.5195C238.596 69.7494 240.462 63.9655 244.194 59.1679C247.978 54.3702 253.043 50.7186 259.386 48.2132C265.73 45.6544 272.713 44.375 280.336 44.375C288.919 44.375 296.488 45.6277 303.045 48.1332C309.602 50.5853 315.279 54.1036 320.077 58.6881L307.683 72.9212C303.951 69.7761 299.927 67.4572 295.609 65.9646C291.291 64.4186 286.893 63.6457 282.415 63.6457C279.11 63.6457 276.205 64.0721 273.699 64.9251C271.194 65.7247 269.248 66.9241 267.862 68.5233C266.476 70.1225 265.783 72.1216 265.783 74.5204C265.783 76.866 266.45 78.8383 267.782 80.4376C269.115 82.0368 271.434 83.556 274.739 84.9953C278.044 86.3813 282.628 88.0072 288.492 89.873C295.475 92.0053 301.446 94.564 306.403 97.5493C311.414 100.481 315.226 104.186 317.838 108.664C320.503 113.142 321.836 118.792 321.836 125.616ZM341.764 158V47.1737H367.991V137.29H416.048L413.329 158H341.764ZM506.741 47.1737V66.3644H483.873V138.729H506.741V158H434.776V138.729H457.645V66.3644H434.776V47.1737H506.741Z" fill="#22262C"/>
<path d="M242.36 183.207C242.36 184.067 242.133 184.827 241.68 185.487C241.233 186.147 240.59 186.664 239.75 187.037C238.91 187.411 237.9 187.597 236.72 187.597C235.413 187.597 234.317 187.407 233.43 187.027C232.55 186.641 231.82 186.164 231.24 185.597L232.9 183.757C233.413 184.204 233.98 184.551 234.6 184.797C235.22 185.037 235.9 185.157 236.64 185.157C237.1 185.157 237.503 185.091 237.85 184.957C238.197 184.824 238.467 184.631 238.66 184.377C238.853 184.124 238.95 183.817 238.95 183.457C238.95 183.117 238.873 182.831 238.72 182.597C238.567 182.364 238.307 182.154 237.94 181.967C237.58 181.781 237.077 181.591 236.43 181.397C235.35 181.064 234.48 180.697 233.82 180.297C233.167 179.897 232.69 179.434 232.39 178.907C232.097 178.381 231.95 177.767 231.95 177.067C231.95 176.221 232.183 175.497 232.65 174.897C233.123 174.297 233.757 173.841 234.55 173.527C235.343 173.207 236.217 173.047 237.17 173.047C238.243 173.047 239.19 173.204 240.01 173.517C240.83 173.824 241.54 174.264 242.14 174.837L240.59 176.617C240.123 176.224 239.62 175.934 239.08 175.747C238.54 175.554 237.99 175.457 237.43 175.457C237.017 175.457 236.653 175.511 236.34 175.617C236.027 175.717 235.783 175.867 235.61 176.067C235.437 176.267 235.35 176.517 235.35 176.817C235.35 177.111 235.433 177.357 235.6 177.557C235.767 177.757 236.057 177.947 236.47 178.127C236.883 178.301 237.457 178.504 238.19 178.737C239.063 179.004 239.81 179.324 240.43 179.697C241.057 180.064 241.533 180.527 241.86 181.087C242.193 181.647 242.36 182.354 242.36 183.207ZM247.132 182.867C247.206 183.447 247.356 183.917 247.582 184.277C247.816 184.631 248.112 184.891 248.472 185.057C248.832 185.217 249.236 185.297 249.682 185.297C250.169 185.297 250.639 185.217 251.092 185.057C251.546 184.897 251.982 184.684 252.402 184.417L253.672 186.137C253.172 186.564 252.566 186.914 251.852 187.187C251.146 187.461 250.339 187.597 249.432 187.597C248.219 187.597 247.202 187.357 246.382 186.877C245.562 186.391 244.946 185.724 244.532 184.877C244.119 184.031 243.912 183.057 243.912 181.957C243.912 180.911 244.112 179.961 244.512 179.107C244.912 178.247 245.496 177.564 246.262 177.057C247.036 176.544 247.979 176.287 249.092 176.287C250.106 176.287 250.982 176.504 251.722 176.937C252.469 177.371 253.046 177.994 253.452 178.807C253.866 179.621 254.072 180.597 254.072 181.737C254.072 181.917 254.066 182.111 254.052 182.317C254.046 182.524 254.032 182.707 254.012 182.867H247.132ZM249.092 178.407C248.526 178.407 248.069 178.611 247.722 179.017C247.376 179.424 247.166 180.074 247.092 180.967H250.992C250.986 180.194 250.836 179.574 250.542 179.107C250.249 178.641 249.766 178.407 249.092 178.407ZM265.944 186.637C265.531 186.904 265.031 187.131 264.444 187.317C263.858 187.504 263.198 187.597 262.464 187.597C261.078 187.597 260.048 187.244 259.374 186.537C258.701 185.824 258.364 184.857 258.364 183.637V178.817H256.134V176.637H258.364V174.337L261.524 173.957V176.637H264.944L264.634 178.817H261.524V183.637C261.524 184.164 261.644 184.541 261.884 184.767C262.124 184.994 262.508 185.107 263.034 185.107C263.408 185.107 263.748 185.064 264.054 184.977C264.368 184.884 264.648 184.767 264.894 184.627L265.944 186.637ZM280.829 187.257V173.397H284.109V184.667H290.119L289.779 187.257H280.829ZM301.301 184.197C301.301 184.597 301.354 184.887 301.461 185.067C301.574 185.247 301.754 185.384 302.001 185.477L301.351 187.557C300.724 187.497 300.194 187.361 299.761 187.147C299.334 186.927 298.998 186.597 298.751 186.157C298.344 186.644 297.824 187.007 297.191 187.247C296.558 187.481 295.911 187.597 295.251 187.597C294.158 187.597 293.284 187.287 292.631 186.667C291.984 186.041 291.661 185.237 291.661 184.257C291.661 183.104 292.111 182.214 293.011 181.587C293.918 180.961 295.191 180.647 296.831 180.647H298.261V180.247C298.261 179.694 298.081 179.284 297.721 179.017C297.368 178.751 296.848 178.617 296.161 178.617C295.821 178.617 295.384 178.667 294.851 178.767C294.318 178.861 293.784 178.997 293.251 179.177L292.521 177.077C293.208 176.817 293.921 176.621 294.661 176.487C295.408 176.354 296.074 176.287 296.661 176.287C298.241 176.287 299.408 176.611 300.161 177.257C300.921 177.897 301.301 178.824 301.301 180.037V184.197ZM296.341 185.337C296.681 185.337 297.038 185.237 297.411 185.037C297.784 184.831 298.068 184.541 298.261 184.167V182.447H297.481C296.601 182.447 295.954 182.584 295.541 182.857C295.128 183.124 294.921 183.517 294.921 184.037C294.921 184.444 295.044 184.764 295.291 184.997C295.544 185.224 295.894 185.337 296.341 185.337ZM304.353 187.257V176.637H307.113L307.333 177.867C307.806 177.334 308.306 176.937 308.833 176.677C309.36 176.417 309.96 176.287 310.633 176.287C311.54 176.287 312.253 176.564 312.773 177.117C313.293 177.671 313.553 178.451 313.553 179.457V187.257H310.393V180.367C310.393 179.934 310.363 179.591 310.303 179.337C310.243 179.077 310.136 178.894 309.983 178.787C309.836 178.674 309.633 178.617 309.373 178.617C309.153 178.617 308.936 178.667 308.723 178.767C308.516 178.861 308.313 178.997 308.113 179.177C307.913 179.357 307.713 179.574 307.513 179.827V187.257H304.353ZM325.775 174.937L326.515 177.257C326.142 177.404 325.705 177.511 325.205 177.577C324.705 177.644 324.122 177.677 323.455 177.677C324.122 177.964 324.629 178.321 324.975 178.747C325.329 179.167 325.505 179.721 325.505 180.407C325.505 181.094 325.322 181.707 324.955 182.247C324.589 182.781 324.069 183.201 323.395 183.507C322.722 183.814 321.925 183.967 321.005 183.967C320.779 183.967 320.565 183.957 320.365 183.937C320.165 183.917 319.969 183.887 319.775 183.847C319.662 183.907 319.575 183.994 319.515 184.107C319.455 184.221 319.425 184.337 319.425 184.457C319.425 184.624 319.492 184.774 319.625 184.907C319.765 185.041 320.089 185.107 320.595 185.107H322.335C323.162 185.107 323.875 185.241 324.475 185.507C325.082 185.774 325.552 186.137 325.885 186.597C326.219 187.057 326.385 187.584 326.385 188.177C326.385 189.264 325.909 190.121 324.955 190.747C324.002 191.374 322.585 191.687 320.705 191.687C319.345 191.687 318.292 191.547 317.545 191.267C316.805 190.994 316.289 190.601 315.995 190.087C315.709 189.581 315.565 188.977 315.565 188.277H318.365C318.365 188.584 318.425 188.834 318.545 189.027C318.672 189.227 318.909 189.374 319.255 189.467C319.609 189.561 320.119 189.607 320.785 189.607C321.459 189.607 321.972 189.554 322.325 189.447C322.679 189.341 322.919 189.194 323.045 189.007C323.179 188.827 323.245 188.624 323.245 188.397C323.245 188.084 323.122 187.831 322.875 187.637C322.629 187.444 322.239 187.347 321.705 187.347H320.015C318.869 187.347 318.035 187.137 317.515 186.717C316.995 186.291 316.735 185.794 316.735 185.227C316.735 184.834 316.839 184.461 317.045 184.107C317.259 183.754 317.555 183.457 317.935 183.217C317.255 182.857 316.769 182.434 316.475 181.947C316.182 181.454 316.035 180.864 316.035 180.177C316.035 179.377 316.239 178.691 316.645 178.117C317.052 177.537 317.612 177.091 318.325 176.777C319.045 176.464 319.865 176.307 320.785 176.307C321.579 176.321 322.269 176.267 322.855 176.147C323.442 176.021 323.969 175.851 324.435 175.637C324.902 175.417 325.349 175.184 325.775 174.937ZM320.865 178.357C320.365 178.357 319.969 178.517 319.675 178.837C319.382 179.151 319.235 179.584 319.235 180.137C319.235 180.724 319.385 181.174 319.685 181.487C319.985 181.801 320.379 181.957 320.865 181.957C321.392 181.957 321.792 181.801 322.065 181.487C322.345 181.174 322.485 180.711 322.485 180.097C322.485 179.504 322.349 179.067 322.075 178.787C321.802 178.501 321.399 178.357 320.865 178.357ZM331.498 176.637V183.907C331.498 184.421 331.591 184.774 331.778 184.967C331.971 185.161 332.238 185.257 332.578 185.257C332.904 185.257 333.231 185.154 333.558 184.947C333.884 184.741 334.158 184.461 334.378 184.107V176.637H337.538V187.257H334.778L334.638 186.017C334.278 186.537 333.804 186.931 333.218 187.197C332.631 187.464 332.018 187.597 331.378 187.597C330.351 187.597 329.588 187.301 329.088 186.707C328.588 186.107 328.338 185.304 328.338 184.297V176.637H331.498ZM349.27 184.197C349.27 184.597 349.323 184.887 349.43 185.067C349.543 185.247 349.723 185.384 349.97 185.477L349.32 187.557C348.693 187.497 348.163 187.361 347.73 187.147C347.303 186.927 346.966 186.597 346.72 186.157C346.313 186.644 345.793 187.007 345.16 187.247C344.526 187.481 343.88 187.597 343.22 187.597C342.126 187.597 341.253 187.287 340.6 186.667C339.953 186.041 339.63 185.237 339.63 184.257C339.63 183.104 340.08 182.214 340.98 181.587C341.886 180.961 343.16 180.647 344.8 180.647H346.23V180.247C346.23 179.694 346.05 179.284 345.69 179.017C345.336 178.751 344.816 178.617 344.13 178.617C343.79 178.617 343.353 178.667 342.82 178.767C342.286 178.861 341.753 178.997 341.22 179.177L340.49 177.077C341.176 176.817 341.89 176.621 342.63 176.487C343.376 176.354 344.043 176.287 344.63 176.287C346.21 176.287 347.376 176.611 348.13 177.257C348.89 177.897 349.27 178.824 349.27 180.037V184.197ZM344.31 185.337C344.65 185.337 345.006 185.237 345.38 185.037C345.753 184.831 346.036 184.541 346.23 184.167V182.447H345.45C344.57 182.447 343.923 182.584 343.51 182.857C343.096 183.124 342.89 183.517 342.89 184.037C342.89 184.444 343.013 184.764 343.26 184.997C343.513 185.224 343.863 185.337 344.31 185.337ZM361.752 174.937L362.492 177.257C362.119 177.404 361.682 177.511 361.182 177.577C360.682 177.644 360.099 177.677 359.432 177.677C360.099 177.964 360.605 178.321 360.952 178.747C361.305 179.167 361.482 179.721 361.482 180.407C361.482 181.094 361.299 181.707 360.932 182.247C360.565 182.781 360.045 183.201 359.372 183.507C358.699 183.814 357.902 183.967 356.982 183.967C356.755 183.967 356.542 183.957 356.342 183.937C356.142 183.917 355.945 183.887 355.752 183.847C355.639 183.907 355.552 183.994 355.492 184.107C355.432 184.221 355.402 184.337 355.402 184.457C355.402 184.624 355.469 184.774 355.602 184.907C355.742 185.041 356.065 185.107 356.572 185.107H358.312C359.139 185.107 359.852 185.241 360.452 185.507C361.059 185.774 361.529 186.137 361.862 186.597C362.195 187.057 362.362 187.584 362.362 188.177C362.362 189.264 361.885 190.121 360.932 190.747C359.979 191.374 358.562 191.687 356.682 191.687C355.322 191.687 354.269 191.547 353.522 191.267C352.782 190.994 352.265 190.601 351.972 190.087C351.685 189.581 351.542 188.977 351.542 188.277H354.342C354.342 188.584 354.402 188.834 354.522 189.027C354.649 189.227 354.885 189.374 355.232 189.467C355.585 189.561 356.095 189.607 356.762 189.607C357.435 189.607 357.949 189.554 358.302 189.447C358.655 189.341 358.895 189.194 359.022 189.007C359.155 188.827 359.222 188.624 359.222 188.397C359.222 188.084 359.099 187.831 358.852 187.637C358.605 187.444 358.215 187.347 357.682 187.347H355.992C354.845 187.347 354.012 187.137 353.492 186.717C352.972 186.291 352.712 185.794 352.712 185.227C352.712 184.834 352.815 184.461 353.022 184.107C353.235 183.754 353.532 183.457 353.912 183.217C353.232 182.857 352.745 182.434 352.452 181.947C352.159 181.454 352.012 180.864 352.012 180.177C352.012 179.377 352.215 178.691 352.622 178.117C353.029 177.537 353.589 177.091 354.302 176.777C355.022 176.464 355.842 176.307 356.762 176.307C357.555 176.321 358.245 176.267 358.832 176.147C359.419 176.021 359.945 175.851 360.412 175.637C360.879 175.417 361.325 175.184 361.752 174.937ZM356.842 178.357C356.342 178.357 355.945 178.517 355.652 178.837C355.359 179.151 355.212 179.584 355.212 180.137C355.212 180.724 355.362 181.174 355.662 181.487C355.962 181.801 356.355 181.957 356.842 181.957C357.369 181.957 357.769 181.801 358.042 181.487C358.322 181.174 358.462 180.711 358.462 180.097C358.462 179.504 358.325 179.067 358.052 178.787C357.779 178.501 357.375 178.357 356.842 178.357ZM367.054 182.867C367.127 183.447 367.277 183.917 367.504 184.277C367.737 184.631 368.034 184.891 368.394 185.057C368.754 185.217 369.157 185.297 369.604 185.297C370.091 185.297 370.561 185.217 371.014 185.057C371.467 184.897 371.904 184.684 372.324 184.417L373.594 186.137C373.094 186.564 372.487 186.914 371.774 187.187C371.067 187.461 370.261 187.597 369.354 187.597C368.141 187.597 367.124 187.357 366.304 186.877C365.484 186.391 364.867 185.724 364.454 184.877C364.041 184.031 363.834 183.057 363.834 181.957C363.834 180.911 364.034 179.961 364.434 179.107C364.834 178.247 365.417 177.564 366.184 177.057C366.957 176.544 367.901 176.287 369.014 176.287C370.027 176.287 370.904 176.504 371.644 176.937C372.391 177.371 372.967 177.994 373.374 178.807C373.787 179.621 373.994 180.597 373.994 181.737C373.994 181.917 373.987 182.111 373.974 182.317C373.967 182.524 373.954 182.707 373.934 182.867H367.054ZM369.014 178.407C368.447 178.407 367.991 178.611 367.644 179.017C367.297 179.424 367.087 180.074 367.014 180.967H370.914C370.907 180.194 370.757 179.574 370.464 179.107C370.171 178.641 369.687 178.407 369.014 178.407ZM397.398 173.397V175.797H394.538V184.847H397.398V187.257H388.398V184.847H391.258V175.797H388.398V173.397H397.398ZM400.291 187.257V176.637H403.051L403.271 177.867C403.744 177.334 404.244 176.937 404.771 176.677C405.297 176.417 405.897 176.287 406.571 176.287C407.477 176.287 408.191 176.564 408.711 177.117C409.231 177.671 409.491 178.451 409.491 179.457V187.257H406.331V180.367C406.331 179.934 406.301 179.591 406.241 179.337C406.181 179.077 406.074 178.894 405.921 178.787C405.774 178.674 405.571 178.617 405.311 178.617C405.091 178.617 404.874 178.667 404.661 178.767C404.454 178.861 404.251 178.997 404.051 179.177C403.851 179.357 403.651 179.574 403.451 179.827V187.257H400.291ZM421.843 186.637C421.429 186.904 420.929 187.131 420.343 187.317C419.756 187.504 419.096 187.597 418.363 187.597C416.976 187.597 415.946 187.244 415.273 186.537C414.599 185.824 414.263 184.857 414.263 183.637V178.817H412.033V176.637H414.263V174.337L417.423 173.957V176.637H420.843L420.533 178.817H417.423V183.637C417.423 184.164 417.543 184.541 417.783 184.767C418.023 184.994 418.406 185.107 418.933 185.107C419.306 185.107 419.646 185.064 419.953 184.977C420.266 184.884 420.546 184.767 420.793 184.627L421.843 186.637ZM427.015 182.867C427.088 183.447 427.238 183.917 427.465 184.277C427.698 184.631 427.995 184.891 428.355 185.057C428.715 185.217 429.118 185.297 429.565 185.297C430.052 185.297 430.522 185.217 430.975 185.057C431.428 184.897 431.865 184.684 432.285 184.417L433.555 186.137C433.055 186.564 432.448 186.914 431.735 187.187C431.028 187.461 430.222 187.597 429.315 187.597C428.102 187.597 427.085 187.357 426.265 186.877C425.445 186.391 424.828 185.724 424.415 184.877C424.002 184.031 423.795 183.057 423.795 181.957C423.795 180.911 423.995 179.961 424.395 179.107C424.795 178.247 425.378 177.564 426.145 177.057C426.918 176.544 427.862 176.287 428.975 176.287C429.988 176.287 430.865 176.504 431.605 176.937C432.352 177.371 432.928 177.994 433.335 178.807C433.748 179.621 433.955 180.597 433.955 181.737C433.955 181.917 433.948 182.111 433.935 182.317C433.928 182.524 433.915 182.707 433.895 182.867H427.015ZM428.975 178.407C428.408 178.407 427.952 178.611 427.605 179.017C427.258 179.424 427.048 180.074 426.975 180.967H430.875C430.868 180.194 430.718 179.574 430.425 179.107C430.132 178.641 429.648 178.407 428.975 178.407ZM436.367 187.257V185.137H437.767V178.737H436.367V176.637H440.177L440.757 179.027C441.137 178.114 441.621 177.434 442.207 176.987C442.801 176.541 443.524 176.317 444.377 176.317C444.737 176.317 445.057 176.347 445.337 176.407C445.617 176.461 445.881 176.537 446.127 176.637L445.167 179.247C444.974 179.194 444.781 179.154 444.587 179.127C444.394 179.101 444.181 179.087 443.947 179.087C443.254 179.087 442.644 179.371 442.117 179.937C441.597 180.504 441.201 181.224 440.927 182.097V185.137H443.027V187.257H436.367ZM443.557 181.077V177.977L444.027 176.637H446.127L445.537 181.077H443.557ZM454.139 176.287C455.066 176.287 455.813 176.517 456.379 176.977C456.946 177.437 457.359 178.087 457.619 178.927C457.886 179.767 458.019 180.764 458.019 181.917C458.019 183.011 457.859 183.987 457.539 184.847C457.219 185.701 456.756 186.374 456.149 186.867C455.543 187.354 454.806 187.597 453.939 187.597C452.906 187.597 452.066 187.227 451.419 186.487V191.357L448.259 191.687V176.637H451.059L451.199 177.827C451.633 177.274 452.106 176.881 452.619 176.647C453.133 176.407 453.639 176.287 454.139 176.287ZM453.159 178.617C452.793 178.617 452.469 178.727 452.189 178.947C451.909 179.167 451.653 179.467 451.419 179.847V184.327C451.639 184.654 451.869 184.894 452.109 185.047C452.356 185.201 452.646 185.277 452.979 185.277C453.539 185.277 453.976 185.024 454.289 184.517C454.603 184.004 454.759 183.151 454.759 181.957C454.759 181.077 454.696 180.397 454.569 179.917C454.443 179.431 454.259 179.094 454.019 178.907C453.779 178.714 453.493 178.617 453.159 178.617ZM460.352 187.257V185.137H461.752V178.737H460.352V176.637H464.162L464.742 179.027C465.122 178.114 465.605 177.434 466.192 176.987C466.785 176.541 467.508 176.317 468.362 176.317C468.722 176.317 469.042 176.347 469.322 176.407C469.602 176.461 469.865 176.537 470.112 176.637L469.152 179.247C468.958 179.194 468.765 179.154 468.572 179.127C468.378 179.101 468.165 179.087 467.932 179.087C467.238 179.087 466.628 179.371 466.102 179.937C465.582 180.504 465.185 181.224 464.912 182.097V185.137H467.012V187.257H460.352ZM467.542 181.077V177.977L468.012 176.637H470.112L469.522 181.077H467.542ZM474.984 182.867C475.057 183.447 475.207 183.917 475.434 184.277C475.667 184.631 475.964 184.891 476.324 185.057C476.684 185.217 477.087 185.297 477.534 185.297C478.02 185.297 478.49 185.217 478.944 185.057C479.397 184.897 479.834 184.684 480.254 184.417L481.524 186.137C481.024 186.564 480.417 186.914 479.704 187.187C478.997 187.461 478.19 187.597 477.284 187.597C476.07 187.597 475.054 187.357 474.234 186.877C473.414 186.391 472.797 185.724 472.384 184.877C471.97 184.031 471.764 183.057 471.764 181.957C471.764 180.911 471.964 179.961 472.364 179.107C472.764 178.247 473.347 177.564 474.114 177.057C474.887 176.544 475.83 176.287 476.944 176.287C477.957 176.287 478.834 176.504 479.574 176.937C480.32 177.371 480.897 177.994 481.304 178.807C481.717 179.621 481.924 180.597 481.924 181.737C481.924 181.917 481.917 182.111 481.904 182.317C481.897 182.524 481.884 182.707 481.864 182.867H474.984ZM476.944 178.407C476.377 178.407 475.92 178.611 475.574 179.017C475.227 179.424 475.017 180.074 474.944 180.967H478.844C478.837 180.194 478.687 179.574 478.394 179.107C478.1 178.641 477.617 178.407 476.944 178.407ZM493.796 186.637C493.383 186.904 492.883 187.131 492.296 187.317C491.709 187.504 491.049 187.597 490.316 187.597C488.929 187.597 487.899 187.244 487.226 186.537C486.553 185.824 486.216 184.857 486.216 183.637V178.817H483.986V176.637H486.216V174.337L489.376 173.957V176.637H492.796L492.486 178.817H489.376V183.637C489.376 184.164 489.496 184.541 489.736 184.767C489.976 184.994 490.359 185.107 490.886 185.107C491.259 185.107 491.599 185.064 491.906 184.977C492.219 184.884 492.499 184.767 492.746 184.627L493.796 186.637ZM498.968 182.867C499.041 183.447 499.191 183.917 499.418 184.277C499.651 184.631 499.948 184.891 500.308 185.057C500.668 185.217 501.071 185.297 501.518 185.297C502.005 185.297 502.475 185.217 502.928 185.057C503.381 184.897 503.818 184.684 504.238 184.417L505.508 186.137C505.008 186.564 504.401 186.914 503.688 187.187C502.981 187.461 502.175 187.597 501.268 187.597C500.055 187.597 499.038 187.357 498.218 186.877C497.398 186.391 496.781 185.724 496.368 184.877C495.955 184.031 495.748 183.057 495.748 181.957C495.748 180.911 495.948 179.961 496.348 179.107C496.748 178.247 497.331 177.564 498.098 177.057C498.871 176.544 499.815 176.287 500.928 176.287C501.941 176.287 502.818 176.504 503.558 176.937C504.305 177.371 504.881 177.994 505.288 178.807C505.701 179.621 505.908 180.597 505.908 181.737C505.908 181.917 505.901 182.111 505.888 182.317C505.881 182.524 505.868 182.707 505.848 182.867H498.968ZM500.928 178.407C500.361 178.407 499.905 178.611 499.558 179.017C499.211 179.424 499.001 180.074 498.928 180.967H502.828C502.821 180.194 502.671 179.574 502.378 179.107C502.085 178.641 501.601 178.407 500.928 178.407ZM508.32 187.257V185.137H509.72V178.737H508.32V176.637H512.13L512.71 179.027C513.09 178.114 513.574 177.434 514.16 176.987C514.754 176.541 515.477 176.317 516.33 176.317C516.69 176.317 517.01 176.347 517.29 176.407C517.57 176.461 517.834 176.537 518.08 176.637L517.12 179.247C516.927 179.194 516.734 179.154 516.54 179.127C516.347 179.101 516.134 179.087 515.9 179.087C515.207 179.087 514.597 179.371 514.07 179.937C513.55 180.504 513.154 181.224 512.88 182.097V185.137H514.98V187.257H508.32ZM515.51 181.077V177.977L515.98 176.637H518.08L517.49 181.077H515.51Z" fill="#22262C"/>
</svg>
